<svg xmlns="http://www.w3.org/2000/svg" viewBox="0 0 150.97 146.37"><defs><style>.cls-1{fill:#fff;}</style></defs><g id="Layer_2" data-name="Layer 2"><g id="Layer_1-2" data-name="Layer 1"><path class="cls-1" d="M80.85,4.13l65.08,112.55a2.7,2.7,0,0,0,5-1.51A151.83,151.83,0,0,0,84.71.44,2.76,2.76,0,0,0,80.85,4.13Z"/><path class="cls-1" d="M10.4,126.07a2.65,2.65,0,0,0-1.17,5,150.83,150.83,0,0,0,66.26,15.27,150.82,150.82,0,0,0,66.25-15.27,2.65,2.65,0,0,0-1.17-5Z"/><path class="cls-1" d="M5,116.68,70.12,4.13A2.68,2.68,0,0,0,66.26.61,151.21,151.21,0,0,0,0,115.17,2.7,2.7,0,0,0,5,116.68Z"/></g></g></svg>